<?xml version="1.0" encoding="iso-8859-1"?>
<!-- Generator: Adobe Illustrator 19.0.0, SVG Export Plug-In . SVG Version: 6.00 Build 0)  -->
<svg version="1.1" id="Layer_1" xmlns="http://www.w3.org/2000/svg" xmlns:xlink="http://www.w3.org/1999/xlink" x="0px" y="0px"
	 viewBox="0 0 512 512" style="enable-background:new 0 0 512 512;" xml:space="preserve">
<path style="fill:#546A79;" d="M324.005,281.372c20.784,18.647,33.991,45.646,33.991,75.849
	c0,56.329-45.646,101.975-101.975,101.975s-101.975-45.646-101.975-101.975c0-30.204,13.208-57.203,33.991-75.849V172.697v-9.711
	c0-5.341,4.37-9.711,9.711-9.711h116.542c5.341,0,9.711,4.37,9.711,9.711v118.387H324.005z"/>
<path style="fill:#465966;" d="M197.751,153.273c-5.341,0-9.711,4.371-9.711,9.711v118.388
	c-20.784,18.647-33.991,45.646-33.991,75.849c0,56.329,45.646,101.975,101.975,101.975V153.273H197.751z"/>
<g>
	<path style="fill:#FFFFFF;" d="M256,424.252v-16.696c-24.85,0-45.067-20.217-45.067-45.067h-16.696
		C194.237,396.546,221.943,424.252,256,424.252z"/>
	<rect x="188.015" y="329.862" style="fill:#FFFFFF;" width="29.139" height="16.696"/>
</g>
<rect x="289.992" y="329.862" width="29.139" height="16.696"/>
<rect x="260.853" y="359.002" width="29.139" height="16.696"/>
<g>
	<rect x="222.008" y="184.187" style="fill:#FFFFFF;" width="24.28" height="16.696"/>
	<rect x="265.706" y="184.187" style="fill:#FFFFFF;" width="24.28" height="16.696"/>
</g>
<path d="M332.33,243.507v-13.983l160.872-9.749L477.983,21.933l-16.647,1.28l13.918,180.922l-142.924,8.662v-33.478l101.272-30.382
	L355.494,13.546l-14.462,8.343L408.6,139.006l-76.345,22.904c-0.759-9.265-8.528-16.574-17.985-16.574h-11.59
	c1.907-12.012-0.945-31.435-25.337-55.826l-11.805,11.806c22.679,22.678,22.026,37.694,20.118,44.02h-63.295
	c-1.908-6.324-2.561-21.34,20.118-44.02L230.675,89.51c-24.391,24.391-27.244,43.814-25.337,55.826h-7.608
	c-9.456,0-17.224,7.309-17.985,16.574l-76.345-22.904L170.969,21.89l-14.462-8.343l-78.11,135.391l101.272,30.382v33.478
	l-142.924-8.662L50.662,23.214l-16.647-1.28l-15.219,197.84l160.872,9.749v13.983L0,267.785V420.76h16.696V282.377l162.973-22.023
	v17.791c-0.058,0.056-0.114,0.112-0.171,0.168l-0.445-0.787L63.126,343.049v155.404h16.696V352.791l77.165-43.616
	c-7.355,14.956-11.311,31.517-11.311,48.456c0,60.832,49.49,110.323,110.323,110.323c20.467,0,40.45-5.645,57.791-16.327
	l-8.755-14.215c-14.708,9.059-31.664,13.846-49.036,13.846c-51.626,0-93.627-42.001-93.627-93.627
	c0-25.417,10.508-49.839,28.927-67.502h88.979v-16.696h-83.915V163.395c0-0.727,0.638-1.365,1.365-1.365H314.27
	c0.727,0,1.365,0.637,1.365,1.365V285.51l2.774,2.488c19.84,17.798,31.217,43.179,31.217,69.635
	c0,23.077-8.464,45.243-23.832,62.417l12.442,11.133c18.111-20.238,28.087-46.359,28.087-73.55c0-16.939-3.956-33.5-11.311-48.457
	l77.166,43.616v145.663h16.696V343.049l-115.927-65.524l-0.445,0.787c-0.058-0.056-0.114-0.114-0.171-0.168v-17.791l162.975,22.024
	V420.76H512V267.785L332.33,243.507z"/>
<g>
</g>
<g>
</g>
<g>
</g>
<g>
</g>
<g>
</g>
<g>
</g>
<g>
</g>
<g>
</g>
<g>
</g>
<g>
</g>
<g>
</g>
<g>
</g>
<g>
</g>
<g>
</g>
<g>
</g>
</svg>
